<svg xmlns="http://www.w3.org/2000/svg" viewBox="0 0 64 64">
  <style>.t{fill:#14181c}@media (prefers-color-scheme:dark){.t{fill:#e8edf1}}</style>
  <rect x="4" y="6" width="10" height="52" rx="1.5" fill="#e59a4a"/><rect x="15.5" y="6" width="7" height="52" rx="1.5" fill="#5fae4a"/><rect x="24" y="6" width="16" height="52" rx="1.5" fill="#2aa898"/><rect x="41.5" y="6" width="10" height="52" rx="1.5" fill="#8a6fd1"/><rect x="53" y="6" width="7" height="52" rx="1.5" fill="#e0c23a"/><rect class="t" x="1.5" y="12" width="61" height="5" rx="2.5"/><rect class="t" x="1.5" y="24" width="61" height="5" rx="2.5"/><rect class="t" x="1.5" y="36" width="61" height="5" rx="2.5"/><rect class="t" x="1.5" y="48" width="61" height="5" rx="2.5"/><rect x="15.5" y="11.7" width="7" height="5.6" fill="#5fae4a"/><rect x="41.5" y="11.7" width="10" height="5.6" fill="#8a6fd1"/><rect x="4" y="23.7" width="10" height="5.6" fill="#e59a4a"/><rect x="24" y="23.7" width="16" height="5.6" fill="#2aa898"/><rect x="53" y="23.7" width="7" height="5.6" fill="#e0c23a"/><rect x="15.5" y="35.7" width="7" height="5.6" fill="#5fae4a"/><rect x="41.5" y="35.7" width="10" height="5.6" fill="#8a6fd1"/><rect x="4" y="47.7" width="10" height="5.6" fill="#e59a4a"/><rect x="24" y="47.7" width="16" height="5.6" fill="#2aa898"/><rect x="53" y="47.7" width="7" height="5.6" fill="#e0c23a"/>
</svg>
